<?xml version="1.0" encoding="UTF-8" standalone="no"?>
<!-- Created with Inkscape (http://www.inkscape.org/) -->

<svg
   xmlns:dc="http://purl.org/dc/elements/1.1/"
   xmlns:cc="http://creativecommons.org/ns#"
   xmlns:rdf="http://www.w3.org/1999/02/22-rdf-syntax-ns#"
   xmlns:svg="http://www.w3.org/2000/svg"
   xmlns="http://www.w3.org/2000/svg"
   xmlns:sodipodi="http://sodipodi.sourceforge.net/DTD/sodipodi-0.dtd"
   xmlns:inkscape="http://www.inkscape.org/namespaces/inkscape"
   width="324.64874"
   height="219.26401"
   id="svg3505"
   version="1.1"
   inkscape:version="0.48.4 r9939"
   sodipodi:docname="binaryxmas.svg">
  <defs
     id="defs3507" />
  <sodipodi:namedview
     id="base"
     pagecolor="#ffffff"
     bordercolor="#666666"
     borderopacity="1.0"
     inkscape:pageopacity="0.0"
     inkscape:pageshadow="2"
     inkscape:zoom="2.8"
     inkscape:cx="255.45662"
     inkscape:cy="78.48494"
     inkscape:document-units="px"
     inkscape:current-layer="text3311-5"
     showgrid="false"
     fit-margin-top="0"
     fit-margin-left="0"
     fit-margin-right="0"
     fit-margin-bottom="0"
     inkscape:window-width="1920"
     inkscape:window-height="1030"
     inkscape:window-x="0"
     inkscape:window-y="25"
     inkscape:window-maximized="1" />
  <metadata
     id="metadata3510">
    <rdf:RDF>
      <cc:Work
         rdf:about="">
        <dc:format>image/svg+xml</dc:format>
        <dc:type
           rdf:resource="http://purl.org/dc/dcmitype/StillImage" />
        <dc:title />
      </cc:Work>
    </rdf:RDF>
  </metadata>
  <g
     inkscape:label="Ebene 1"
     inkscape:groupmode="layer"
     id="layer1"
     transform="translate(-51.961339,-334.30161)">
    <g
       style="font-size:40px;font-style:normal;font-weight:normal;line-height:75%;letter-spacing:0px;word-spacing:0px;fill:#000000;fill-opacity:1;stroke:none;font-family:Sans"
       id="text3311-5">
      <g
         id="g2991">
        <path
           id="path2986"
           style="font-size:144px;font-variant:normal;font-stretch:normal;line-height:75%;letter-spacing:-2px;font-family:PoetsenOne;-inkscape-font-specification:PoetsenOne"
           d="m 102.64934,334.30161 c 6.33594,1e-4 11.71193,1.0081 16.128,3.024 4.41592,1.9201 8.01592,4.8001 10.8,8.64 2.78391,3.74409 4.79991,8.35208 6.048,13.824 1.34391,5.37607 2.01591,11.52007 2.016,18.432 -9e-5,3.84006 -0.24009,8.01605 -0.72,12.528 -0.48009,4.51204 -1.34409,9.07204 -2.592,13.68 -1.24809,4.51203 -2.97608,8.88003 -5.184,13.104 -2.20808,4.22402 -5.04008,7.96801 -8.496,11.232 -3.45607,3.26401 -7.63207,5.904 -12.528,7.92 -4.80006,1.92 -10.512051,2.88 -17.136001,2.88 -7.104036,0 -13.00803,-1.2 -17.712,-3.6 -4.608021,-2.4 -8.352017,-5.61599 -11.232,-9.648 -2.784011,-4.12798 -4.75201,-8.97598 -5.904,-14.544 -1.152007,-5.56797 -1.728007,-11.51996 -1.728,-17.856 -7e-6,-7.48795 0.767993,-14.78394 2.304,-21.888 1.631989,-7.19993 4.319987,-13.58392 8.064,-19.152 3.743979,-5.56791 8.687974,-10.0319 14.832,-13.392 6.239962,-3.4559 13.919954,-5.1839 23.040001,-5.184 m -3.024001,22.32 c -2.688049,8e-5 -5.040047,0.62408 -7.056,1.872 -1.920043,1.15208 -3.600041,2.73608 -5.04,4.752 -1.344038,2.01607 -2.448037,4.27207 -3.312,6.768 -0.768036,2.49607 -1.392035,5.08806 -1.872,7.776 -0.480034,2.59206 -0.816034,5.13606 -1.008,7.632 -0.09603,2.40005 -0.144033,4.56005 -0.144,6.48 -3.3e-5,8.73604 1.055966,15.12003 3.168,19.152 2.207961,4.03202 5.327958,6.04802 9.36,6.048 3.551951,2e-5 6.431951,-1.39198 8.640001,-4.176 2.30394,-2.87997 4.07994,-6.28797 5.328,-10.224 1.24794,-4.03196 2.06394,-8.15996 2.448,-12.384 0.47994,-4.31995 0.71994,-7.96794 0.72,-10.944 -6e-5,-7.00793 -0.86406,-12.52793 -2.592,-16.56 -1.72806,-4.12792 -4.60806,-6.19192 -8.640001,-6.192"
           inkscape:connector-curvature="0" />
        <path
           id="path2988"
           style="font-size:144px;font-variant:normal;font-stretch:normal;line-height:75%;letter-spacing:-2px;font-family:PoetsenOne;-inkscape-font-specification:PoetsenOne"
           d="m 195.43059,334.30161 c 6.33594,1e-4 11.71193,1.0081 16.128,3.024 4.41592,1.9201 8.01592,4.8001 10.8,8.64 2.78391,3.74409 4.79991,8.35208 6.048,13.824 1.34391,5.37607 2.01591,11.52007 2.016,18.432 -9e-5,3.84006 -0.24009,8.01605 -0.72,12.528 -0.48009,4.51204 -1.34409,9.07204 -2.592,13.68 -1.24809,4.51203 -2.97608,8.88003 -5.184,13.104 -2.20808,4.22402 -5.04008,7.96801 -8.496,11.232 -3.45607,3.26401 -7.63207,5.904 -12.528,7.92 -4.80006,1.92 -10.51205,2.88 -17.136,2.88 -7.10404,0 -13.00803,-1.2 -17.712,-3.6 -4.60802,-2.4 -8.35202,-5.61599 -11.232,-9.648 -2.78401,-4.12798 -4.75201,-8.97598 -5.904,-14.544 -1.15201,-5.56797 -1.72801,-11.51996 -1.728,-17.856 -10e-6,-7.48795 0.76799,-14.78394 2.304,-21.888 1.63199,-7.19993 4.31999,-13.58392 8.064,-19.152 3.74398,-5.56791 8.68797,-10.0319 14.832,-13.392 6.23996,-3.4559 13.91995,-5.1839 23.04,-5.184 m -3.024,22.32 c -2.68805,8e-5 -5.04005,0.62408 -7.056,1.872 -1.92004,1.15208 -3.60004,2.73608 -5.04,4.752 -1.34404,2.01607 -2.44804,4.27207 -3.312,6.768 -0.76804,2.49607 -1.39204,5.08806 -1.872,7.776 -0.48004,2.59206 -0.81603,5.13606 -1.008,7.632 -0.096,2.40005 -0.14403,4.56005 -0.144,6.48 -3e-5,8.73604 1.05596,15.12003 3.168,19.152 2.20796,4.03202 5.32796,6.04802 9.36,6.048 3.55195,2e-5 6.43195,-1.39198 8.64,-4.176 2.30394,-2.87997 4.07994,-6.28797 5.328,-10.224 1.24794,-4.03196 2.06394,-8.15996 2.448,-12.384 0.47994,-4.31995 0.71994,-7.96794 0.72,-10.944 -6e-5,-7.00793 -0.86406,-12.52793 -2.592,-16.56 -1.72806,-4.12792 -4.60806,-6.19192 -8.64,-6.192"
           inkscape:connector-curvature="0" />
        <path
           id="path2990"
           style="font-size:144px;font-variant:normal;font-stretch:normal;line-height:75%;letter-spacing:-2px;font-family:PoetsenOne;-inkscape-font-specification:PoetsenOne"
           d="m 288.21184,334.30161 c 6.33594,1e-4 11.71193,1.0081 16.128,3.024 4.41592,1.9201 8.01592,4.8001 10.8,8.64 2.78391,3.74409 4.79991,8.35208 6.048,13.824 1.34391,5.37607 2.01591,11.52007 2.016,18.432 -9e-5,3.84006 -0.24009,8.01605 -0.72,12.528 -0.48009,4.51204 -1.34409,9.07204 -2.592,13.68 -1.24809,4.51203 -2.97608,8.88003 -5.184,13.104 -2.20808,4.22402 -5.04008,7.96801 -8.496,11.232 -3.45607,3.26401 -7.63207,5.904 -12.528,7.92 -4.80006,1.92 -10.51205,2.88 -17.136,2.88 -7.10404,0 -13.00803,-1.2 -17.712,-3.6 -4.60802,-2.4 -8.35202,-5.61599 -11.232,-9.648 -2.78401,-4.12798 -4.75201,-8.97598 -5.904,-14.544 -1.15201,-5.56797 -1.72801,-11.51996 -1.728,-17.856 -10e-6,-7.48795 0.76799,-14.78394 2.304,-21.888 1.63199,-7.19993 4.31999,-13.58392 8.064,-19.152 3.74398,-5.56791 8.68797,-10.0319 14.832,-13.392 6.23996,-3.4559 13.91995,-5.1839 23.04,-5.184 m -3.024,22.32 c -2.68805,8e-5 -5.04005,0.62408 -7.056,1.872 -1.92004,1.15208 -3.60004,2.73608 -5.04,4.752 -1.34404,2.01607 -2.44804,4.27207 -3.312,6.768 -0.76804,2.49607 -1.39204,5.08806 -1.872,7.776 -0.48004,2.59206 -0.81603,5.13606 -1.008,7.632 -0.096,2.40005 -0.14403,4.56005 -0.144,6.48 -3e-5,8.73604 1.05596,15.12003 3.168,19.152 2.20796,4.03202 5.32796,6.04802 9.36,6.048 3.55195,2e-5 6.43195,-1.39198 8.64,-4.176 2.30394,-2.87997 4.07994,-6.28797 5.328,-10.224 1.24794,-4.03196 2.06394,-8.15996 2.448,-12.384 0.47994,-4.31995 0.71994,-7.96794 0.72,-10.944 -6e-5,-7.00793 -0.86406,-12.52793 -2.592,-16.56 -1.72806,-4.12792 -4.60806,-6.19192 -8.64,-6.192"
           inkscape:connector-curvature="0" />
        <path
           id="path2992"
           style="font-size:144px;font-variant:normal;font-stretch:normal;line-height:75%;letter-spacing:-2px;font-family:PoetsenOne;-inkscape-font-specification:PoetsenOne"
           d="m 343.40909,340.78161 c 1.63198,-0.9599 3.31198,-2.0159 5.04,-3.168 1.82397,-1.1519 2.83197,-1.7279 3.024,-1.728 l 8.64,0 c 5.27996,1e-4 9.07196,1.1521 11.376,3.456 2.30395,2.2081 3.45595,5.08809 3.456,8.64 -5e-5,1.05609 -0.096,3.07209 -0.288,6.048 -0.096,2.88008 -0.28805,6.38408 -0.576,10.512 -0.28805,4.12807 -0.62405,8.73607 -1.008,13.824 -0.28805,4.99206 -0.62405,10.03205 -1.008,15.12 -0.28805,5.08804 -0.62405,10.08003 -1.008,14.976 -0.28805,4.89603 -0.57605,9.31202 -0.864,13.248 -0.28804,3.84001 -0.52804,7.05601 -0.72,9.648 -0.19204,2.592 -0.33604,4.128 -0.432,4.608 -0.096,0.768 -0.28804,1.344 -0.576,1.728 -0.28804,0.288 -0.86404,0.432 -1.728,0.432 l -7.92,0 c -5.76003,0 -9.69602,-1.152 -11.808,-3.456 -2.11202,-2.30399 -3.16802,-5.95199 -3.168,-10.944 -2e-5,-2.01598 0.14398,-5.08798 0.432,-9.216 0.28798,-4.22397 0.62398,-9.11997 1.008,-14.688 0.47998,-5.56796 0.95998,-11.66395 1.44,-18.288 0.57598,-6.62394 1.15198,-13.39193 1.728,-20.304 -1.05602,1.15208 -2.20802,1.96808 -3.456,2.448 -1.15202,0.48007 -2.30402,0.72007 -3.456,0.72 -1.82401,7e-5 -3.45601,-0.47993 -4.896,-1.44 -1.34401,-0.95992 -2.49601,-2.11192 -3.456,-3.456 -0.96001,-1.34392 -1.68001,-2.78392 -2.16,-4.32 -0.48001,-1.63192 -0.72001,-3.07191 -0.72,-4.32 -1e-5,-0.47991 0.096,-0.91191 0.288,-1.296 0.28799,-0.38391 0.86399,-0.91191 1.728,-1.584 0.86399,-0.67191 2.15999,-1.53591 3.888,-2.592 1.72799,-1.15191 4.12798,-2.6879 7.2,-4.608"
           inkscape:connector-curvature="0" />
        <path
           sodipodi:nodetypes="cccccccccccccccsssccccccccccccccc"
           inkscape:connector-curvature="0"
           id="path2994"
           style="font-size:144px;font-variant:normal;font-stretch:normal;line-height:75%;letter-spacing:-2px;font-family:PoetsenOne;-inkscape-font-specification:PoetsenOne"
           d="m 65.065339,454.78161 c 1.631981,-0.9599 3.311979,-2.0159 5.04,-3.168 1.823976,-1.1519 2.831975,-1.7279 3.024,-1.728 l 8.64,0 c 5.279961,1e-4 9.071957,1.1521 11.376,3.456 2.303952,2.2081 3.455951,5.08809 3.456,8.64 -4.9e-5,1.05609 -0.09605,3.07209 -0.288,6.048 -0.09605,2.88008 -0.288048,6.38408 -0.576,10.512 -0.288048,4.12807 -0.624047,8.73607 -1.008,13.824 -0.288047,4.99206 -0.624046,10.03205 -1.008,15.12 -0.288046,5.08804 -0.624045,10.08003 -1.008,14.976 -0.288045,4.89603 -0.576044,9.31202 -0.864,13.248 -0.288044,3.84001 -0.528044,7.05601 -0.72,9.648 -0.192043,2.592 -0.336043,4.128 -0.432,4.608 -0.09604,0.768 -0.288043,1.344 -0.576,1.728 -0.288042,0.288 -0.864041,0.432 -1.728,0.432 l -7.92,0 c -5.760027,0 -9.696023,-1.152 -11.808,-3.456 -2.112019,-2.30399 -3.168018,-5.95199 -3.168,-10.944 -1.8e-5,-2.01598 0.143982,-5.08798 0.432,-9.216 0.287982,-4.22397 0.623981,-9.11997 1.008,-14.688 0.47998,-5.56796 0.95998,-11.66395 1.44,-18.288 0.575979,-6.62394 1.151978,-13.39193 1.728,-20.304 -1.056021,1.15208 -2.20802,1.96808 -3.456,2.448 -1.152018,0.48007 -2.304017,0.72007 -3.456,0.72 -1.824014,7e-5 -3.456012,-0.47993 -4.896,-1.44 -1.344009,-0.95992 -2.496008,-2.11192 -3.456,-3.456 -0.960006,-1.34392 -1.680005,-2.78392 -2.16,-4.32 -0.480004,-1.63192 -0.720004,-3.07191 -0.72,-4.32 -4e-6,-0.47991 0.096,-0.91191 0.288,-1.296 0.287995,-0.38391 0.863995,-0.91191 1.728,-1.584 0.863993,-0.67191 2.159992,-1.53591 3.888,-2.592 1.727988,-1.15191 4.127986,-2.6879 7.2,-4.608" />
        <path
           sodipodi:nodetypes="ccccccccccsccsscsccccccccccccccccc"
           inkscape:connector-curvature="0"
           id="path2996"
           style="font-size:144px;font-variant:normal;font-stretch:normal;line-height:75%;letter-spacing:-2px;font-family:PoetsenOne;-inkscape-font-specification:PoetsenOne"
           d="m 156.05559,448.30161 c 6.33594,1e-4 11.71193,1.0081 16.128,3.024 4.41592,1.9201 8.01592,4.8001 10.8,8.64 2.78391,3.74409 4.79991,8.35208 6.048,13.824 1.34391,5.37607 2.01591,11.52007 2.016,18.432 -9e-5,3.84006 -0.24009,8.01605 -0.72,12.528 -0.48009,4.51204 -1.34409,9.07204 -2.592,13.68 -1.24809,4.51203 -2.97608,8.88003 -5.184,13.104 -2.20808,4.22402 -5.04008,7.96801 -8.496,11.232 -3.45607,3.26401 -7.63207,5.904 -12.528,7.92 -4.80006,1.92 -10.51205,2.88 -17.136,2.88 -7.10404,0 -13.00803,-1.2 -17.712,-3.6 -4.60802,-2.4 -8.35202,-5.61599 -11.232,-9.648 -2.78401,-4.12798 -4.75201,-8.97598 -5.904,-14.544 -1.15201,-5.56797 -1.72801,-11.51996 -1.728,-17.856 -1e-5,-7.48795 0.76799,-14.78394 2.304,-21.888 1.63199,-7.19993 4.31999,-13.58392 8.064,-19.152 3.74398,-5.56791 8.68797,-10.0319 14.832,-13.392 6.23996,-3.4559 13.91995,-5.1839 23.04,-5.184 m -3.024,22.32 c -2.68805,8e-5 -5.04005,0.62408 -7.056,1.872 -1.92004,1.15208 -3.60004,2.73608 -5.04,4.752 -1.34404,2.01607 -2.44804,4.27207 -3.312,6.768 -0.76804,2.49607 -1.39204,5.08806 -1.872,7.776 -0.48004,2.59206 -0.81603,5.13606 -1.008,7.632 -0.096,2.40005 -0.14403,4.56005 -0.144,6.48 -3e-5,8.73604 1.05596,15.12003 3.168,19.152 2.20796,4.03202 5.32796,6.04802 9.36,6.048 3.55195,2e-5 6.43195,-1.39198 8.64,-4.176 2.30394,-2.87997 4.07994,-6.28797 5.328,-10.224 1.24794,-4.03196 2.06394,-8.15996 2.448,-12.384 0.47994,-4.31995 0.71994,-7.96794 0.72,-10.944 -6e-5,-7.00793 -0.86406,-12.52793 -2.592,-16.56 -1.72806,-4.12792 -4.60806,-6.19192 -8.64,-6.192" />
        <path
           sodipodi:nodetypes="ccccccccccsccsscsccccccccccccccccc"
           inkscape:connector-curvature="0"
           id="path2998"
           style="font-size:144px;font-variant:normal;font-stretch:normal;line-height:75%;letter-spacing:-2px;font-family:PoetsenOne;-inkscape-font-specification:PoetsenOne"
           d="m 248.83684,448.30161 c 6.33594,1e-4 11.71193,1.0081 16.128,3.024 4.41592,1.9201 8.01592,4.8001 10.8,8.64 2.78391,3.74409 4.79991,8.35208 6.048,13.824 1.34391,5.37607 2.01591,11.52007 2.016,18.432 -9e-5,3.84006 -0.24009,8.01605 -0.72,12.528 -0.48009,4.51204 -1.34409,9.07204 -2.592,13.68 -1.24809,4.51203 -2.97608,8.88003 -5.184,13.104 -2.20808,4.22402 -5.04008,7.96801 -8.496,11.232 -3.45607,3.26401 -7.63207,5.904 -12.528,7.92 -4.80006,1.92 -10.51205,2.88 -17.136,2.88 -7.10404,0 -13.00803,-1.2 -17.712,-3.6 -4.60802,-2.4 -8.35202,-5.61599 -11.232,-9.648 -2.78401,-4.12798 -4.75201,-8.97598 -5.904,-14.544 -1.15201,-5.56797 -1.72801,-11.51996 -1.728,-17.856 -10e-6,-7.48795 0.76799,-14.78394 2.304,-21.888 1.63199,-7.19993 4.31999,-13.58392 8.064,-19.152 3.74398,-5.56791 8.68797,-10.0319 14.832,-13.392 6.23996,-3.4559 13.91995,-5.1839 23.04,-5.184 m -3.024,22.32 c -2.68805,8e-5 -5.04005,0.62408 -7.056,1.872 -1.92004,1.15208 -3.60004,2.73608 -5.04,4.752 -1.34404,2.01607 -2.44804,4.27207 -3.312,6.768 -0.76804,2.49607 -1.39204,5.08806 -1.872,7.776 -0.48004,2.59206 -0.81603,5.13606 -1.008,7.632 -0.096,2.40005 -0.14403,4.56005 -0.144,6.48 -3e-5,8.73604 1.05596,15.12003 3.168,19.152 2.20796,4.03202 5.32796,6.04802 9.36,6.048 3.55195,2e-5 6.43195,-1.39198 8.64,-4.176 2.30394,-2.87997 4.07994,-6.28797 5.328,-10.224 1.24794,-4.03196 2.06394,-8.15996 2.448,-12.384 0.47994,-4.31995 0.71994,-7.96794 0.72,-10.944 -6e-5,-7.00793 -0.86406,-12.52793 -2.592,-16.56 -1.72806,-4.12792 -4.60806,-6.19192 -8.64,-6.192" />
        <path
           sodipodi:nodetypes="ccccccccccsccsscsccccccccccccccccc"
           inkscape:connector-curvature="0"
           id="path3000"
           style="font-size:144px;font-variant:normal;font-stretch:normal;line-height:75%;letter-spacing:-2px;font-family:PoetsenOne;-inkscape-font-specification:PoetsenOne"
           d="m 341.61809,448.30161 c 6.33594,1e-4 11.71193,1.0081 16.128,3.024 4.41592,1.9201 8.01592,4.8001 10.8,8.64 2.78391,3.74409 4.79991,8.35208 6.048,13.824 1.34391,5.37607 2.01591,11.52007 2.016,18.432 -9e-5,3.84006 -0.24009,8.01605 -0.72,12.528 -0.48009,4.51204 -1.34409,9.07204 -2.592,13.68 -1.24809,4.51203 -2.97608,8.88003 -5.184,13.104 -2.20808,4.22402 -5.04008,7.96801 -8.496,11.232 -3.45607,3.26401 -7.63207,5.904 -12.528,7.92 -4.80006,1.92 -10.51205,2.88 -17.136,2.88 -7.10404,0 -13.00803,-1.2 -17.712,-3.6 -4.60802,-2.4 -8.35202,-5.61599 -11.232,-9.648 -2.78401,-4.12798 -4.75201,-8.97598 -5.904,-14.544 -1.15201,-5.56797 -1.72801,-11.51996 -1.728,-17.856 -10e-6,-7.48795 0.76799,-14.78394 2.304,-21.888 1.63199,-7.19993 4.31999,-13.58392 8.064,-19.152 3.74398,-5.56791 8.68797,-10.0319 14.832,-13.392 6.23996,-3.4559 13.91995,-5.1839 23.04,-5.184 m -3.024,22.32 c -2.68805,8e-5 -5.04005,0.62408 -7.056,1.872 -1.92004,1.15208 -3.60004,2.73608 -5.04,4.752 -1.34404,2.01607 -2.44804,4.27207 -3.312,6.768 -0.76804,2.49607 -1.39204,5.08806 -1.872,7.776 -0.48004,2.59206 -0.81603,5.13606 -1.008,7.632 -0.096,2.40005 -0.14403,4.56005 -0.144,6.48 -3e-5,8.73604 1.05596,15.12003 3.168,19.152 2.20796,4.03202 5.32796,6.04802 9.36,6.048 3.55195,2e-5 6.43195,-1.39198 8.64,-4.176 2.30394,-2.87997 4.07994,-6.28797 5.328,-10.224 1.24794,-4.03196 2.06394,-8.15996 2.448,-12.384 0.47994,-4.31995 0.71994,-7.96794 0.72,-10.944 -6e-5,-7.00793 -0.86406,-12.52793 -2.592,-16.56 -1.72806,-4.12792 -4.60806,-6.19192 -8.64,-6.192" />
      </g>
    </g>
  </g>
</svg>
