<?xml version="1.0" encoding="UTF-8" standalone="no"?>
<!-- Created with Inkscape (http://www.inkscape.org/) -->

<svg
   xmlns:dc="http://purl.org/dc/elements/1.1/"
   xmlns:cc="http://creativecommons.org/ns#"
   xmlns:rdf="http://www.w3.org/1999/02/22-rdf-syntax-ns#"
   xmlns:svg="http://www.w3.org/2000/svg"
   xmlns="http://www.w3.org/2000/svg"
   xmlns:sodipodi="http://sodipodi.sourceforge.net/DTD/sodipodi-0.dtd"
   xmlns:inkscape="http://www.inkscape.org/namespaces/inkscape"
   width="430.94159"
   height="455.64111"
   id="svg2"
   version="1.1"
   inkscape:version="0.48.4 r9939"
   sodipodi:docname="coffee.svg">
  <defs
     id="defs4" />
  <sodipodi:namedview
     id="base"
     pagecolor="#ffffff"
     bordercolor="#666666"
     borderopacity="1.0"
     inkscape:pageopacity="0.0"
     inkscape:pageshadow="2"
     inkscape:zoom="0.98994949"
     inkscape:cx="40.605976"
     inkscape:cy="203.72509"
     inkscape:document-units="px"
     inkscape:current-layer="layer1"
     showgrid="false"
     fit-margin-top="0"
     fit-margin-left="0"
     fit-margin-right="0"
     fit-margin-bottom="0"
     inkscape:window-width="1265"
     inkscape:window-height="1030"
     inkscape:window-x="654"
     inkscape:window-y="25"
     inkscape:window-maximized="0" />
  <metadata
     id="metadata7">
    <rdf:RDF>
      <cc:Work
         rdf:about="">
        <dc:format>image/svg+xml</dc:format>
        <dc:type
           rdf:resource="http://purl.org/dc/dcmitype/StillImage" />
        <dc:title></dc:title>
      </cc:Work>
    </rdf:RDF>
  </metadata>
  <g
     inkscape:label="Ebene 1"
     inkscape:groupmode="layer"
     id="layer1"
     transform="translate(-118.81493,-510.25592)">
    <path
       style="fill:#000000"
       d="m 300.90078,965.72282 c -47.68088,-2.0947 -83.74012,-6.705 -116.49999,-14.8949 -47.86668,-11.9666 -71.85609,-29.4776 -64.17421,-46.8438 6.10619,-13.804 29.5715,-25.86343 68.48456,-35.1965 l 14.81035,-2.5928 6.72957,6.3484 c 3.70125,3.49161 8.5865,7.6829 10.85609,9.3142 2.65671,1.9094 4.50704,4.2125 5.19485,6.4658 2.85138,9.3415 9.93521,18.8743 23.84864,23.9516 18.23537,6.6544 38.36688,9.0416 76.25014,9.0416 37.88326,0 58.01477,-2.3872 76.25014,-9.0416 13.91343,-5.0773 24.99726,-14.6101 27.84864,-23.9516 0.68781,-2.2533 2.53814,-4.5564 5.19486,-6.4658 2.26959,-1.6313 7.17011,-5.8371 10.89004,-9.3462 l 6.76351,-0.3804 14.71403,-2.3179 c 79.64025,-12.54572 88.03771,51.5429 22.88385,74.4503 -26.61964,9.3592 -68.83722,16.844 -112.96204,20.0272 -15.09187,1.0888 -64.1533,2.0005 -77.08303,1.4324 z m -0.68022,-58.4357 c -39.39328,-2.4872 -58.49186,-10.1363 -60.64442,-24.2886 -0.5848,-3.8449 -1.39667,-5.0092 -6.05459,-8.6832 -8.31311,-6.557 -20.51245,-19.5634 -27.66213,-29.4921 -8.09239,-11.2378 -19.16078,-33.34549 -24.35792,-48.65169 -7.78046,-22.9144 -12.32549,-48.7854 -14.17575,-80.6904 -1.73659,-29.945 -0.44917,-36.5956 8.8565,-45.7516 14.80649,-14.5682 45.35501,-24.6612 90.21853,-29.8076 21.36782,-2.4511 54.81327,-3.8544 75,-3.1468 78.68925,2.7581 130.14403,17.7478 141.65002,41.2652 2.27288,4.6456 2.84833,7.3587 3.1828,15.0061 0.3776,8.6335 0.5514,9.2897 2.3125,8.7307 3.97011,-1.2601 23.37539,1.3745 29.13518,2.9527 15.04737,4.1231 24.31029,10.8645 29.854,26.1733 2.97564,8.2172 2.95937,24.6269 -0.0356,35.8662 -7.57881,28.4413 -31.08974,54.63749 -60.23169,67.11079 -9.56962,4.0959 -23.73134,7.989 -32.78911,9.0138 l -6.21107,0.7027 -5.65064,7.1133 c -6.59026,8.2962 -18.68445,20.3889 -24.74235,24.7393 -3.63822,2.6128 -4.30234,3.658 -4.7289,7.4424 -0.61461,5.4529 -2.6258,8.6082 -7.9408,12.4584 -13.62122,9.8671 -57.9456,14.907 -104.9846,11.9371 z M 479.90078,802.07573 c 16.5756,-8.2551 28.5675,-19.1673 34.83801,-31.7013 7.7462,-15.4837 5.15961,-29.1855 -6.6466,-35.2086 -3.43298,-1.7514 -5.39953,-2.0055 -12.78524,-1.6524 -4.80054,0.2295 -9.37881,0.9572 -10.17394,1.6171 -0.87537,0.7265 -1.7096,4.0585 -2.11468,8.4463 -1.43436,15.537 -9.4715,48.4276 -15.29726,62.6014 -0.76584,1.8632 2.22109,0.8571 12.17971,-4.1025 z m -108.5,-88.8262 c 35.06939,-2.7704 62.81181,-9.0698 71.56023,-16.2491 13.94547,-11.4441 -16.0087,-23.274 -73.06023,-28.8538 -19.31696,-1.8892 -73.13692,-1.5833 -92.5,0.5259 -44.09646,4.8031 -70.99999,13.386 -70.99999,22.6507 0,11.2963 39.46229,20.6233 98.99999,23.3991 11.50788,0.5365 52.00379,-0.3672 66,-1.4728 z m -73.35094,-83.7259 c -13.29033,-0.0774 11.79352,-20.6573 8.83398,-43.21136 -2.5896,-19.73481 -2.36916,-30.743 0.79677,-39.78951 5.15855,-14.74029 16.8563,-34.81194 38.72019,-35.52896 l 24.5,-0.73788 16.5,0.71539 c 14.22904,0.61693 -14.89195,20.90377 -17.04197,33.53219 -1.05603,6.20278 -2.97489,10.04103 -1.4683,25.15249 1.95905,19.64979 1.6454,26.53254 -1.60902,35.30834 -3.04344,8.2069 -11.93835,24.08329 -24.90823,24.2495 l -30.47248,0.3905 z"
       id="path3050"
       inkscape:connector-curvature="0"
       sodipodi:nodetypes="sssscscssssscccsssscsssssssssscssssscssssccssssssssssssssssssscssssscs" />
  </g>
</svg>
