<?xml version="1.0" encoding="UTF-8" standalone="no"?>
<!-- Created with Inkscape (http://www.inkscape.org/) -->

<svg
   xmlns:dc="http://purl.org/dc/elements/1.1/"
   xmlns:cc="http://creativecommons.org/ns#"
   xmlns:rdf="http://www.w3.org/1999/02/22-rdf-syntax-ns#"
   xmlns:svg="http://www.w3.org/2000/svg"
   xmlns="http://www.w3.org/2000/svg"
   xmlns:sodipodi="http://sodipodi.sourceforge.net/DTD/sodipodi-0.dtd"
   xmlns:inkscape="http://www.inkscape.org/namespaces/inkscape"
   width="176.36185"
   height="154.76147"
   id="svg3372"
   version="1.1"
   inkscape:version="0.48.4 r9939"
   sodipodi:docname="Neues Dokument 6">
  <defs
     id="defs3374" />
  <sodipodi:namedview
     id="base"
     pagecolor="#ffffff"
     bordercolor="#666666"
     borderopacity="1.0"
     inkscape:pageopacity="0.0"
     inkscape:pageshadow="2"
     inkscape:zoom="1.979899"
     inkscape:cx="119.8017"
     inkscape:cy="3.1024266"
     inkscape:document-units="px"
     inkscape:current-layer="text3311"
     showgrid="false"
     fit-margin-top="0"
     fit-margin-left="0"
     fit-margin-right="0"
     fit-margin-bottom="0"
     inkscape:window-width="1920"
     inkscape:window-height="1030"
     inkscape:window-x="0"
     inkscape:window-y="25"
     inkscape:window-maximized="1" />
  <metadata
     id="metadata3377">
    <rdf:RDF>
      <cc:Work
         rdf:about="">
        <dc:format>image/svg+xml</dc:format>
        <dc:type
           rdf:resource="http://purl.org/dc/dcmitype/StillImage" />
        <dc:title></dc:title>
      </cc:Work>
    </rdf:RDF>
  </metadata>
  <g
     inkscape:label="Ebene 1"
     inkscape:groupmode="layer"
     id="layer1"
     transform="translate(-223.24763,-420.69573)">
    <g
       transform="scale(0.82472376,1.2125272)"
       style="font-size:48.50108719px;font-style:normal;font-weight:normal;line-height:125%;letter-spacing:0px;word-spacing:0px;fill:#000000;fill-opacity:1;stroke:none;font-family:Sans"
       id="text3311">
      <path
         d="m 361.83708,379.78331 c -9e-5,5.58741 -1.04771,11.00012 -3.14287,16.23816 -1.97893,5.12179 -4.53979,10.01069 -7.68257,14.66673 -3.14295,4.53976 -6.69323,8.84665 -10.65084,12.92069 -3.84136,3.95774 -7.68264,7.56621 -11.52386,10.82544 -3.72494,3.14291 -7.21702,5.93657 -10.47623,8.38099 -3.25933,2.32808 -5.76198,4.19052 -7.50797,5.58733 l 44.34939,0 c 0.69833,2e-5 1.33854,0.17463 1.92065,0.52381 0.58192,0.34923 0.87293,0.98945 0.87302,1.92064 l -0.69842,10.30164 c -0.23289,3.49208 -1.22232,6.34394 -2.96827,8.55559 -1.62972,2.09525 -5.06359,3.14287 -10.30163,3.14287 l -57.27009,0 c -5.93654,0 -10.12703,-0.93122 -12.57148,-2.79366 -2.32806,-1.97884 -3.49208,-5.29632 -3.49208,-9.95243 l 0,-10.47623 c 0,-0.58199 0.1164,-1.28041 0.34921,-2.09525 0.3492,-0.81479 0.64021,-1.45501 0.87302,-1.92064 1.04762,-1.97882 3.20106,-4.42327 6.46035,-7.33337 3.37566,-2.91003 7.15874,-6.05289 11.34925,-9.42861 4.30687,-3.37563 8.78837,-6.98411 13.4445,-10.82544 4.77247,-3.84123 9.07936,-7.74072 12.92069,-11.69847 3.95764,-3.95762 7.21691,-7.8571 9.77782,-11.69846 2.5608,-3.95761 3.84123,-7.74069 3.84129,-11.34926 -6e-5,-2.90997 -0.98948,-5.35442 -2.96827,-7.33336 -1.9789,-2.09515 -5.17997,-3.14277 -9.60321,-3.14287 -2.79371,10e-5 -5.12176,0.75671 -6.98416,2.26985 -1.74608,1.51333 -3.20111,3.43397 -4.3651,5.76193 -1.04766,2.21174 -1.86248,4.71439 -2.44445,7.50797 -0.46565,2.67734 -0.81486,5.17999 -1.04763,7.50797 -0.23284,1.1641 -0.64025,1.97892 -1.22222,2.44445 -0.46565,0.46569 -1.92068,0.69849 -4.3651,0.69842 -12.92071,7e-5 -19.38105,-6.22746 -19.38104,-18.68262 -10e-6,-6.05284 1.28042,-11.17455 3.84129,-15.36515 2.67724,-4.19038 6.16932,-7.62425 10.47623,-10.30163 4.30687,-2.67714 9.07937,-4.59778 14.31753,-5.76193 5.35447,-1.2803 10.76719,-1.92052 16.23816,-1.92064 7.79891,1.2e-4 14.25925,1.04775 19.38104,3.14287 5.12163,1.97896 9.19572,4.59802 12.22227,7.85717 3.02638,3.14299 5.12163,6.69326 6.28574,10.65084 1.16394,3.84139 1.74595,7.56627 1.74604,11.17466"
         style="font-size:174.60392761px;font-variant:normal;font-stretch:normal;letter-spacing:-11px;font-family:PoetsenOne;-inkscape-font-specification:PoetsenOne"
         id="path3397"
         inkscape:connector-curvature="0" />
      <path
         d="m 374.77965,439.32324 c -4.53972,4e-5 -8.2064,-0.75658 -11.00005,-2.26985 -2.67727,-1.6296 -4.0159,-4.30685 -4.01589,-8.03178 -1e-5,-1.39678 0.1746,-2.96822 0.52381,-4.7143 0.46561,-1.86239 1.04762,-4.19044 1.74604,-6.98416 0.81481,-2.91001 1.80423,-6.46028 2.96827,-10.65084 1.28041,-4.19042 2.79365,-9.37034 4.5397,-15.53975 1.16401,-4.07401 2.15343,-7.74068 2.96826,-11.00005 0.93121,-3.37558 1.68782,-6.46024 2.26986,-9.25401 0.58199,-2.79355 0.9894,-5.35441 1.22222,-7.68257 0.34919,-2.44434 0.52379,-4.83059 0.52381,-7.15876 -2e-5,-1.39671 0.11639,-2.90994 0.34921,-4.5397 0.34919,-1.74592 1.16401,-2.61894 2.44446,-2.61906 l 7.85717,0 c 6.63492,1.2e-4 11.17461,1.16415 13.61911,3.49208 2.56081,2.32817 3.84124,6.28585 3.84129,11.87307 -5e-5,2.09535 -0.17465,4.4816 -0.52381,7.15876 -0.34926,2.67736 -0.98947,5.99483 -1.92065,9.95242 -0.81486,3.95778 -1.92068,8.67208 -3.31747,14.14292 -1.28047,5.47099 -2.91011,12.04773 -4.88891,19.73024 l 23.39692,0 c 0.34915,-4.07403 0.69836,-8.55552 1.04763,-13.4445 0.46555,-5.00524 0.87295,-9.83594 1.22223,-14.49213 0.34914,-4.65601 0.64015,-8.8465 0.87301,-12.57148 0.34915,-3.84118 0.58195,-6.63484 0.69842,-8.38099 0.23274,-4.07398 0.34914,-7.27505 0.34921,-9.60321 -7e-5,-2.32794 0.0581,-4.07397 0.1746,-5.23812 0.23274,-1.1639 0.52375,-1.86232 0.87302,-2.09525 0.46555,-0.34908 1.16396,-0.52369 2.09525,-0.52381 l 9.60321,0 c 3.72481,1.2e-4 6.69307,0.40753 8.90481,1.22223 2.32796,0.69854 4.1322,1.74616 5.41272,3.14287 1.28033,1.39695 2.15335,3.14299 2.61906,5.23812 0.46551,1.97895 0.69832,4.307 0.69841,6.98415 -9e-5,2.67737 -0.1747,7.04246 -0.52381,13.0953 -0.2329,5.93662 -0.64031,12.68796 -1.22223,20.25405 -0.4657,7.44984 -0.98951,15.1906 -1.57143,23.22233 -0.46571,8.03182 -0.98952,15.48158 -1.57144,22.3493 -0.4657,6.86777 -0.87311,12.6879 -1.22223,17.46039 -0.34929,4.77251 -0.5821,7.56617 -0.69841,8.38099 -0.11649,0.93122 -0.3493,1.62964 -0.69842,2.09525 -0.34929,0.3492 -1.04771,0.52381 -2.09524,0.52381 l -9.60322,0 c -6.40221,0 -11.05831,-1.28043 -13.96831,-3.84129 -2.79373,-2.56085 -4.19056,-6.22753 -4.1905,-11.00005 -6e-5,-0.9312 0.0581,-2.79364 0.17461,-5.58732 0.11634,-2.79364 0.34914,-7.15873 0.69841,-13.0953 l -40.68271,0"
         style="font-size:174.60392761px;font-variant:normal;font-stretch:normal;letter-spacing:-11px;font-family:PoetsenOne;-inkscape-font-specification:PoetsenOne"
         id="path3399"
         inkscape:connector-curvature="0" />
      <path
         d="m 470.91826,441.7677 c 4.88889,3e-5 8.38096,1.22226 10.47624,3.66668 2.09521,2.32808 3.14283,5.64555 3.14287,9.95243 -4e-5,1.74605 -0.23284,3.78309 -0.69842,6.11113 -0.46564,2.21166 -1.33866,4.30691 -2.61906,6.28574 -1.16405,1.86245 -2.85189,3.49208 -5.06351,4.88891 -2.21167,1.28043 -5.12174,1.92065 -8.7302,1.92065 -5.35453,0 -8.96301,-1.33863 -10.82544,-4.01589 -1.86245,-2.79366 -2.79367,-6.22753 -2.79366,-10.30163 -10e-6,-2.32804 0.291,-4.59789 0.87302,-6.80956 0.582,-2.21163 1.51322,-4.19047 2.79366,-5.93653 1.28042,-1.74601 3.02646,-3.14284 5.23812,-4.1905 2.21163,-1.04759 4.94709,-1.5714 8.20638,-1.57143"
         style="font-size:174.60392761px;font-variant:normal;font-stretch:normal;letter-spacing:-11px;font-family:PoetsenOne;-inkscape-font-specification:PoetsenOne"
         id="path3401"
         inkscape:connector-curvature="0" />
    </g>
  </g>
</svg>
