<?xml version="1.0" encoding="UTF-8" standalone="no"?>
<!-- Created with Inkscape (http://www.inkscape.org/) -->

<svg
   xmlns:dc="http://purl.org/dc/elements/1.1/"
   xmlns:cc="http://creativecommons.org/ns#"
   xmlns:rdf="http://www.w3.org/1999/02/22-rdf-syntax-ns#"
   xmlns:svg="http://www.w3.org/2000/svg"
   xmlns="http://www.w3.org/2000/svg"
   xmlns:sodipodi="http://sodipodi.sourceforge.net/DTD/sodipodi-0.dtd"
   xmlns:inkscape="http://www.inkscape.org/namespaces/inkscape"
   width="225.90874"
   height="295.95895"
   id="svg3042"
   version="1.1"
   inkscape:version="0.48.4 r9939"
   sodipodi:docname="rosa.eps">
  <defs
     id="defs3044" />
  <sodipodi:namedview
     id="base"
     pagecolor="#ffffff"
     bordercolor="#666666"
     borderopacity="1.0"
     inkscape:pageopacity="0.0"
     inkscape:pageshadow="2"
     inkscape:zoom="0.98994949"
     inkscape:cx="-79.37528"
     inkscape:cy="119.47542"
     inkscape:document-units="px"
     inkscape:current-layer="layer1"
     showgrid="false"
     fit-margin-top="0"
     fit-margin-left="0"
     fit-margin-right="0"
     fit-margin-bottom="0"
     inkscape:window-width="1920"
     inkscape:window-height="1030"
     inkscape:window-x="0"
     inkscape:window-y="25"
     inkscape:window-maximized="1" />
  <metadata
     id="metadata3047">
    <rdf:RDF>
      <cc:Work
         rdf:about="">
        <dc:format>image/svg+xml</dc:format>
        <dc:type
           rdf:resource="http://purl.org/dc/dcmitype/StillImage" />
        <dc:title></dc:title>
      </cc:Work>
    </rdf:RDF>
  </metadata>
  <g
     inkscape:label="Ebene 1"
     inkscape:groupmode="layer"
     id="layer1"
     transform="translate(-204.18849,-518.66842)">
    <path
       style="fill:#ff0000;fill-opacity:1;fill-rule:nonzero;stroke:none"
       d="m 364.65309,525.05881 c -7.79972,0.0352 -15.88659,-4.47557 -22.25,-0.3125 -12.39962,-9.59479 -31.37348,-1.0315 -43.3125,9.03125 -5.46117,6.08997 -10.99413,-12.87494 -18.6875,-12.4375 -9.70638,-0.94471 -14.67356,13.07527 -11.1875,20.15625 4.58629,16.72315 2.09602,38.69972 -2.5625,54.3125 -2.39104,3.30329 -1.74266,14.71759 -6.15625,9 -7.20208,-8.19228 -19.579,-6.3015 -26.28125,0.4375 -7.11734,5.47267 -22.52232,21.85431 -11.9375,27.78125 3.98881,7.31497 16.66566,0.0246 9.75,9.125 -2.6302,6.6029 8.93987,16.13793 16.71875,21.0625 15.29983,4.28999 29.1873,11.85622 42.375,23 8.38067,4.98662 14.28237,-4.0574 24.15625,-4.0937 -0.006,0.45028 -0.012,0.91439 -0.0312,1.40625 -0.42981,10.96652 1.76545,23.90374 -3.8125,38.96875 -5.59646,15.115 -5.12805,14.53324 -10.09375,12.78125 -6.7841,-2.39358 -6.87515,-2.5598 -6.15625,-12.6875 0.5425,-7.64232 0.38955,-9.22556 -0.96875,-10.21875 -0.8836,-0.6461 -2.47385,-3.38284 -3.53125,-6.09375 -1.0573,-2.71092 -2.83505,-5.38719 -3.96875,-5.96875 -1.1337,-0.58155 -3.5491,-2.95691 -5.375,-5.25 -1.826,-2.29309 -4.46875,-4.4538 -5.84375,-4.8125 -1.375,-0.3587 -3.75015,-1.82515 -5.28125,-3.25 -2.3001,-2.1405 -3.1029,-2.38807 -4.625,-1.4375 -1.4536,0.90778 -2.3202,0.80792 -4.1875,-0.5 -1.3016,-0.91168 -3.9459,2.24955 -5.875,2.15625 -1.9292,-0.0933 -5.2575,-0.49327 -7.375,-0.90625 -2.7148,-0.52946 -4.07313,-0.39296 -4.625,0.5 -0.62026,1.0036 -1.85345,0.919 -5.9375,-0.4375 -3.7862,-1.25758 -5.5002,-1.42882 -6.46875,-0.625 -0.92745,0.76968 -2.86859,0.82554 -6.5625,0.125 -6.04385,-1.14625 -7.49041,-0.69931 -6.0625,1.96875 0.89605,1.67429 0.51448,1.96049 -3.5,2.5625 -18.53571,2.62603 -10.85432,0.35696 5.1875,15.28125 4.06112,2.08229 8.73991,5.82994 16.4375,13.15625 8.17769,7.78325 12.6571,11.01654 19.625,14.125 3.7183,1.65877 8.14845,3.70424 9.84375,4.53125 1.7861,0.87127 8.0945,1.85793 15,2.34375 12.8645,0.90505 20.40625,3.08555 20.40625,5.90625 0,3.66848 -6.4946,9.09375 -10.875,9.09375 -0.5209,0 -2.6063,-2.25 -4.625,-5 -2.0187,-2.75 -6.325,-1 -7.125,-1 -0.8001,0 -3.11565,-0.80451 -5.15625,-1.8125 -5.3676,-2.65149 -22.6968,-1.83449 -25.75,1.21875 -0.8824,0.88234 -2.20755,1.59375 -2.96875,1.59375 -1.6777,0 -8.19078,4.07423 -11.09375,6.9375 -1.15903,1.14319 -3.52153,2.58495 -5.25,3.1875 -1.72847,0.60255 -3.15625,1.48035 -3.15625,1.96875 0,0.48839 -1.78855,2.09902 -4,3.5625 -2.88909,1.9119 -3.86929,3.14425 -3.46875,4.40625 0.39337,1.23941 -0.76743,2.8455 -3.96875,5.46875 -2.49514,2.04458 -8.5625,12.24701 -8.5625,12.90625 0,1.03215 9.15628,1.97945 16,1.65625 33.25653,-1.57058 36.6947,-1.89852 43.625,-4.28125 3.9177,-1.34696 10.11925,-4.57433 13.78125,-7.1875 3.662,-2.61317 13.0694,-12.61509 13.5625,-12.4375 0.4931,0.17759 -2.03055,2.58438 -5.59375,10.25 -6.5798,14.15485 -13.375,32.26857 -13.375,35.625 0,1.44473 0.9233,1.91913 4.25,2.21875 13.6598,1.23032 14.1184,0.95695 16.25,-9.5 2.1423,-10.5098 5.0541,-17.91547 16.0625,-40.875 5.1727,-10.78848 10.93555,-23.16348 12.78125,-27.5 3.073,-7.21955 3.6692,-6.02115 7.25,-7.25 2.627,-0.90157 10.82075,6.83823 16.78125,7.15625 7.4847,0.39934 12.1436,4.06336 19,1.96875 8.4807,-2.5908 14.3356,-3.65768 20.5,-8.8125 5.7751,-4.82926 13.76235,-10.2871 17.34375,-11.8125 1.809,-0.77051 5.3766,-7.3729 7.9375,-9.78125 2.5609,-2.40836 6.1739,-5.17908 8,-6.1875 4.1977,-2.31801 0.86415,-7.16392 -8.40625,-8.125 -6.2814,-0.6512 -6.75,-0.87263 -6.75,-3.125 0,-2.22855 -0.4162,-2.44631 -5.25,-2.625 -2.8875,-0.10674 -7.725,-0.32126 -10.75,-0.46875 -16.3454,-0.79699 -25.4197,-0.1401 -27.75,1.96875 -1.0364,0.93797 -2.72355,1.6875 -3.71875,1.6875 -0.9952,0 -3.7382,1.8 -6.125,4 -8.165,7.47321 -14.56242,3.12469 -19.8125,18.40625 -1.5948,1.32353 1.1806,-10.17866 1.75,-13.40625 0.3393,-1.92318 1.10055,-8.88537 1.71875,-15.46875 0.41081,-4.44424 6.80104,-3.81748 7.28125,-6.375 1.9887,-1.62387 3.753,-3.12584 5.3125,-4.5625 10.10498,-1.4784 14.7287,5.77079 24.03125,0.75 10.60336,-7.46538 35.19289,-5.88782 40.25,-7.53125 9.35465,-7.1065 14.0383,-20.14624 8.5,-23.625 0.27593,-1.49737 2.86092,-1.74067 6.375,-7.21875 6.36912,-5.75432 5.07136,-19.39596 -6.6875,-22.75 -9.19347,-5.51984 -21.82886,-8.41924 -32.8125,-7.71875 -2.93985,-17.01955 0.58971,-35.95683 0.4375,-53.28125 -0.23636,-7.85697 9.07368,-27.48953 0.71875,-32.75 -4.03439,-3.04008 -18.63267,5.72889 -23.3125,5.75 z m 1.96875,8.53125 c 2.00164,-0.089 4.78907,1.65843 6.96875,5.40625 7.20854,16.38764 1.20452,35.64331 -10.1875,48.59375 -7.6827,7.25139 -14.75048,15.25593 -20.40625,24.25 -4.86738,7.27792 -7.69189,18.02362 -4.09375,25.90625 10.7188,2.23383 20.5974,-1.52403 30.71875,-3.6875 11.5457,-3.83723 11.36864,-12.83867 15.03125,-17.0625 10.44533,4.83681 -12.71418,24.90133 3.8125,16.9375 8.68734,1.64281 -3.89085,12.28801 -9.625,8.875 -13.31349,-0.1268 -27.43283,-0.77586 -39.78125,4.875 -7.50613,3.19147 -12.73982,10.28939 -19.34375,13.4375 -3.39215,-5.91005 -10.1815,-4.01715 -14.28125,-10.9375 5.43192,-2.86196 16.13115,4.30032 21.5625,-4.46875 6.08942,-2.85956 0.19361,-9.42484 1.21875,-14.78125 1.59074,-17.45184 14.72946,-30.12178 25.21875,-43.9375 l 3.53125,-3.8125 c 6.58687,-5.1826 11.29599,-13.02589 13.5625,-21.0625 2.60883,-8.02548 -0.0268,-17.11269 -6.125,-23 -0.98277,-3.51848 0.21711,-5.44223 2.21875,-5.53125 z m -37.5,4.09375 c 4.95601,-0.12684 9.96102,0.82616 14.84375,2.875 9.07565,1.56284 13.98782,11.28932 9.84375,19.78125 -5.33758,7.5221 -11.64185,13.56877 -21.65625,13.1875 -0.0357,9.91051 1.87535,16.57862 -2.78125,15.8125 -0.003,-7.44604 -3.28808,-14.58271 -8.03125,-21.03125 -4.77842,-8.15201 -3.45866,-14.57389 8.78125,-17.46875 8.45999,2.03738 6.58009,7.4704 2.8125,4.625 -5.95082,-8.13553 -13.5393,13.50454 -0.6875,10.84375 11.15689,6.22625 21.67261,-10.59288 14.40625,-18.28125 -8.56779,-7.73533 -26.23348,-8.15774 -33.59375,1.84375 -8.64392,11.12697 -3.69722,31.092 4.875,36.34375 4.22196,7.57449 5.92178,16.88795 5.3125,25.5 -1.87057,11.5596 -3.8283,-1.96914 -3.75,-6.6875 -0.75193,-11.02338 -9.59914,-19.46991 -14.46875,-28.8125 -5.30456,-8.7467 -4.46968,-20.54539 0.75,-28.875 6.99246,-6.22301 15.08373,-9.44485 23.34375,-9.65625 z m -38.84375,30.40625 c 5.26823,5.00333 -0.67289,13.03288 -2.5625,19.15625 -2.03665,5.05765 -4.70154,9.8623 -6.03125,15.21875 -4.11462,11.01585 -4.89054,23.8997 2.40625,33.4375 1.35691,5.04955 14.36424,11.3801 9.96875,15.25 -8.06829,-2.03243 -14.13446,-7.27812 -22.53125,-8.78125 -5.45406,-6.73083 -0.96403,-7.02013 3.96875,-6.875 -7.68129,-14.11959 -1.6457,-29.81838 4.71875,-43.34375 4.7751,-7.8004 6.53981,-16.74751 10.0625,-24.0625 z"
       id="path82"
       inkscape:connector-curvature="0"
       sodipodi:nodetypes="scccccccccccccsssscscsssssssscssccsscsssssscsssssssssssscssssccssssscsssscsccscccccccccccsssccccccccccccccccsscccccccccccccccscccccccccc" />
  </g>
</svg>
