<?xml version="1.0" encoding="UTF-8" standalone="no"?>
<!-- Created with Inkscape (http://www.inkscape.org/) -->

<svg
   xmlns:dc="http://purl.org/dc/elements/1.1/"
   xmlns:cc="http://creativecommons.org/ns#"
   xmlns:rdf="http://www.w3.org/1999/02/22-rdf-syntax-ns#"
   xmlns:svg="http://www.w3.org/2000/svg"
   xmlns="http://www.w3.org/2000/svg"
   xmlns:sodipodi="http://sodipodi.sourceforge.net/DTD/sodipodi-0.dtd"
   xmlns:inkscape="http://www.inkscape.org/namespaces/inkscape"
   version="1.1"
   width="245.56625"
   height="176.80125"
   id="svg3156"
   inkscape:version="0.48.4 r9939"
   sodipodi:docname="ur-lantern.svg">
  <sodipodi:namedview
     pagecolor="#ffffff"
     bordercolor="#666666"
     borderopacity="1"
     objecttolerance="10"
     gridtolerance="10"
     guidetolerance="10"
     inkscape:pageopacity="0"
     inkscape:pageshadow="2"
     inkscape:window-width="959"
     inkscape:window-height="1030"
     id="namedview12"
     showgrid="false"
     fit-margin-top="0"
     fit-margin-left="0"
     fit-margin-right="0"
     fit-margin-bottom="0"
     inkscape:zoom="1.9582853"
     inkscape:cx="-1135.4289"
     inkscape:cy="1857.144"
     inkscape:window-x="960"
     inkscape:window-y="25"
     inkscape:window-maximized="0"
     inkscape:current-layer="g3212" />
  <defs
     id="defs3158" />
  <metadata
     id="metadata3161">
    <rdf:RDF>
      <cc:Work
         rdf:about="">
        <dc:format>image/svg+xml</dc:format>
        <dc:type
           rdf:resource="http://purl.org/dc/dcmitype/StillImage" />
        <dc:title />
      </cc:Work>
    </rdf:RDF>
  </metadata>
  <g
     transform="translate(-89.296875,-413.10218)"
     id="layer1">
    <g
       transform="matrix(1.25,0,0,-1.25,89.296875,651.62218)"
       id="g3195">
      <g
         id="g3197">
        <g
           id="g3212">
          <path
             d="m 141.477,121.261 26.101,0 c 8.688,0 15.141,-1.402 19.332,-4.226 4.211,-2.82 6.309,-7.11 6.309,-12.867 0,-4.258 -1.102,-7.743 -3.324,-10.489 -2.227,-2.742 -5.426,-4.57 -9.606,-5.504 3.438,-1.261 6.215,-4.839 8.309,-10.753 l 0,-0.047 7.855,-21.766 -18.246,0 -5.773,17.981 c -0.93,2.886 -2.192,4.886 -3.786,6.007 -1.609,1.106 -4.097,1.657 -7.488,1.657 l -2.539,0 0,-25.645 -17.144,0 0,65.652 z m 17.144,-11.543 0,-16.828 6.149,0 c 3.785,0 6.625,0.68 8.515,2.051 1.895,1.371 2.84,3.438 2.84,6.184 0,2.949 -1.059,5.125 -3.172,6.511 -2.098,1.387 -5.437,2.082 -9.996,2.082 l -4.336,0"
             id="path3199"
             style="fill:#82858c;fill-opacity:1;fill-rule:nonzero;stroke:none"
             inkscape:connector-curvature="0" />
          <path
             d="m 141.461,121.261 c -0.672,38.477 -32.102,69.555 -70.738,69.555 C 31.664,190.816 0,159.156 0,120.097 0,81.039 31.664,49.375 70.723,49.375 c 10.871,0 21.172,2.453 30.375,6.836 0,0 -6.274,2.925 -8.555,5.273 -4.688,4.848 -7.035,12.07 -7.035,21.652 l 0,38.137 17.472,0 0,-38.137 c 0,-5.597 0.832,-9.629 2.485,-12.132 1.668,-2.485 4.328,-3.727 7.98,-3.727 3.746,0 6.578,1.336 8.481,4.012 1.906,2.672 2.867,6.625 2.867,11.847 l 0,38.137 16.668,-0.012"
             id="path3203"
             style="fill:#82858c;fill-opacity:1;fill-rule:nonzero;stroke:none"
             inkscape:connector-curvature="0" />
          <path
             style="fill:#800000;fill-opacity:1;stroke:none;stroke-width:0.80000000999999998px;stroke-linecap:butt;stroke-linejoin:miter;stroke-opacity:1"
             d="m 39.998431,161.33276 c -0.953956,-1.12907 -11.105546,-19.30398 -8.045281,-18.22633 8.351579,-2.44892 16.993668,-6.39161 25.974009,-6.35798 4.116405,2.63611 -1.597986,11.24292 -3.342661,13.32784 -0.947071,1.34754 -13.135206,10.36432 -14.586067,11.25647 z"
             id="path2991"
             inkscape:connector-curvature="0"
             sodipodi:nodetypes="ccccc" />
          <path
             style="fill:#800000;fill-opacity:1;stroke:none;stroke-width:0.80175536999999986px;stroke-linecap:butt;stroke-linejoin:miter;stroke-opacity:1"
             d="m 102.23775,161.32574 c 0.98127,-1.10246 11.4236,-18.84896 8.27569,-17.79672 -8.59077,-2.39119 -17.48035,-6.24095 -26.71788,-6.20811 -4.2343,2.57397 8.997816,14.94034 10.792455,16.97612 0.974183,1.31578 6.157315,6.15758 7.649735,7.02871 z"
             id="path2991-9"
             inkscape:connector-curvature="0"
             sodipodi:nodetypes="ccccc" />
          <path
             style="fill:#800000;fill-opacity:1;stroke:none"
             d="m 120.88994,107.59801 c 0,-2.61555 -5.01003,-10.667193 -13.75143,-17.99487 -1.09267,-0.91596 -2.24534,-1.821173 -3.45593,-2.703747 -1.21059,-0.882574 -2.4791,-1.742511 -3.803456,-2.567919 -1.324357,-0.825408 -2.70456,-1.616288 -4.138535,-2.360749 -1.433975,-0.744461 -2.921722,-1.442504 -4.461167,-2.082237 -1.539445,-0.639734 -2.600289,7.944014 -4.241055,7.432788 -1.640766,-0.511225 -9.927677,-2.498539 -11.665615,-2.857476 -1.737939,-0.358937 2.542795,-8.25467 0.711832,-8.437538 -1.830963,-0.182868 -3.707401,-0.271756 -5.627239,-0.254773 -3.65874,0.241846 -7.675969,1.188919 -11.803469,2.639789 -4.127499,1.45087 -8.256943,3.441646 -12.356765,5.698682 -4.099821,2.257036 -8.061695,4.816441 -11.637402,7.476785 -3.575708,2.660344 -6.765249,5.421627 -9.320406,8.082421 -2.490994,3.141704 -3.870084,5.726584 -3.870084,7.034364 0,0.32694 0.08563,0.57423 0.252783,0.75054 0.167153,0.1763 0.415831,0.28163 0.74193,0.32466 0.326099,0.043 0.729618,0.0238 1.206453,-0.0491 0.476835,-0.0729 1.026987,-0.19939 1.64635,-0.37083 0.619364,-0.17144 1.307939,-0.38782 2.061622,-0.64045 0.753683,-0.25264 1.572474,-0.54153 2.452268,-0.858 0.879794,-0.31648 1.820592,-0.66052 2.818289,-1.02347 0.997696,-0.36295 2.052292,-0.74479 3.159683,-1.13685 1.107391,-0.39206 2.267577,-0.79433 3.476454,-1.19815 1.208876,-0.40381 2.466444,-0.80916 3.768597,-1.20737 1.302154,-0.39821 -0.517141,-5.487258 0.870082,-5.862498 1.387222,-0.375239 7.717175,-3.492169 9.181257,-3.827082 1.464083,-0.334913 1.22833,6.81018 2.761065,6.532955 1.532734,-0.277225 3.097742,-0.521266 4.690919,-0.723443 1.593178,-0.202177 3.214525,-0.36249 4.859937,-0.472259 1.645412,-0.109769 3.31489,-0.168993 5.004328,-0.168993 28.362537,-1.650327 25.161388,5.15463 46.384204,11.34033 2.61965,0.76962 4.0845,0.79228 4.0845,-0.51549 z"
             id="path3823"
             inkscape:connector-curvature="0"
             sodipodi:nodetypes="ssssssssscssscssssssssssssssssccss" />
          <path
             style="fill:#800000;stroke:none"
             d="M 71.810902,126.91704 C 66.7922,121.1259 62.153978,115.01941 61.411712,106.8544 c 9.474797,3.0919 14.019549,2.29122 21.182306,0.51042 -0.686904,6.8775 -6.080135,14.6302 -10.783116,19.55222 z"
             id="path3826"
             inkscape:connector-curvature="0"
             sodipodi:nodetypes="cccc" />
          <path
             style="fill:#800000;stroke:#000000;stroke-width:0.63110328px;stroke-linecap:butt;stroke-linejoin:miter;stroke-opacity:1"
             d="m 66.970557,209.3438 c 1.540717,1.29505 3.752032,1.65132 5.608223,2.01595 1.856192,0.36462 8.997044,0.81815 10.728631,0.21296 1.691458,-2.29238 0.0096,-7.67633 0.196459,-10.12859 0.115106,-6.11726 5.902641,-18.23599 -4.589849,-14.99795 -44.327864,-9.27961 -14.603831,4.70074 -11.943464,22.89763 z"
             id="path3845"
             inkscape:connector-curvature="0"
             sodipodi:nodetypes="cscccc" />
          <path
             d="m -858.76312,1503.9946 26.101,0 c 8.688,0 15.141,-1.402 19.332,-4.226 4.211,-2.82 6.309,-7.11 6.309,-12.867 0,-4.258 -1.102,-7.743 -3.324,-10.489 -2.227,-2.742 -5.426,-4.57 -9.606,-5.504 3.438,-1.261 6.215,-4.839 8.309,-10.753 l 0,-0.047 7.855,-21.766 -18.246,0 -5.773,17.981 c -0.93,2.886 -2.192,4.886 -3.786,6.007 -1.609,1.106 -4.097,1.657 -7.488,1.657 l -2.539,0 0,-25.645 -17.144,0 0,65.652 z m 17.144,-11.543 0,-16.828 6.149,0 c 3.785,0 6.625,0.68 8.515,2.051 1.895,1.371 2.84,3.438 2.84,6.184 0,2.949 -1.059,5.125 -3.172,6.511 -2.098,1.387 -5.437,2.082 -9.996,2.082 l -4.336,0"
             id="path3199-4"
             style="fill:#82858c;fill-opacity:1;fill-rule:nonzero;stroke:none"
             inkscape:connector-curvature="0" />
          <path
             style="fill:#82858c;fill-opacity:1;fill-rule:nonzero;stroke:none"
             d="M -1150.75 -1754.7188 C -1154.0974 -1754.6969 -1158.1123 -1754.3782 -1159.5625 -1754.0938 C -1161.8827 -1753.6375 -1164.6678 -1753.1814 -1166.5938 -1751.5625 C -1168.0615 -1741.5206 -1176.0956 -1732.5328 -1179.875 -1726.5938 C -1220.0813 -1718.291 -1250.3125 -1682.697 -1250.3125 -1640.0312 C -1250.3125 -1591.2092 -1210.7301 -1551.625 -1161.9062 -1551.625 C -1148.3179 -1551.625 -1135.4412 -1554.6775 -1123.9375 -1560.1562 C -1123.9375 -1560.1562 -1131.7738 -1563.815 -1134.625 -1566.75 C -1140.485 -1572.81 -1143.4062 -1581.835 -1143.4062 -1593.8125 L -1143.4062 -1598.5312 C -1147.0466 -1597.5751 -1154.2858 -1595.8421 -1156.0938 -1595.4688 C -1158.2662 -1595.0201 -1152.8988 -1585.166 -1155.1875 -1584.9375 C -1157.4762 -1584.7089 -1159.8189 -1584.6038 -1162.2188 -1584.625 C -1166.7922 -1584.9272 -1171.8094 -1586.0926 -1176.9688 -1587.9062 C -1182.1281 -1589.7199 -1187.3127 -1592.2099 -1192.4375 -1595.0312 C -1197.5623 -1597.8525 -1202.4991 -1601.0495 -1206.9688 -1604.375 C -1211.4384 -1607.7004 -1215.4311 -1611.1428 -1218.625 -1614.4688 C -1221.7387 -1618.3959 -1223.4688 -1621.6466 -1223.4688 -1623.2812 C -1223.4688 -1623.69 -1223.3652 -1623.9984 -1223.1562 -1624.2188 C -1222.9473 -1624.4391 -1222.6264 -1624.5712 -1222.2188 -1624.625 C -1221.8111 -1624.6787 -1221.3148 -1624.6537 -1220.7188 -1624.5625 C -1220.1227 -1624.4713 -1219.4304 -1624.308 -1218.6562 -1624.0938 C -1217.882 -1623.8795 -1217.0046 -1623.5971 -1216.0625 -1623.2812 C -1215.1204 -1622.9655 -1214.0997 -1622.6144 -1213 -1622.2188 C -1211.9003 -1621.8233 -1210.7471 -1621.3911 -1209.5 -1620.9375 C -1208.2529 -1620.4837 -1206.9155 -1620.0214 -1205.5312 -1619.5312 C -1204.147 -1619.0412 -1202.6986 -1618.536 -1201.1875 -1618.0312 C -1199.6764 -1617.5265 -1198.0964 -1616.9978 -1196.4688 -1616.5 C -1194.841 -1616.0023 -1197.1403 -1609.6565 -1195.4062 -1609.1875 C -1193.6722 -1608.7185 -1185.7364 -1604.8249 -1183.9062 -1604.4062 C -1182.0762 -1603.9876 -1182.3847 -1612.909 -1180.4688 -1612.5625 C -1178.5528 -1612.216 -1176.5852 -1611.909 -1174.5938 -1611.6562 C -1172.6023 -1611.4036 -1170.588 -1611.1996 -1168.5312 -1611.0625 C -1166.4745 -1610.9253 -1164.3931 -1610.875 -1162.2812 -1610.875 C -1154.2219 -1610.4061 -1148.21 -1610.4786 -1143.4062 -1610.9688 L -1143.4062 -1641.5 L -1121.5625 -1641.5 L -1121.5625 -1618.2812 C -1117.2533 -1620.406 -1112.1083 -1622.7499 -1104.2812 -1625.0312 C -1101.0067 -1625.9932 -1099.1875 -1626.041 -1099.1875 -1624.4062 C -1099.1875 -1621.1369 -1105.4483 -1611.0657 -1116.375 -1601.9062 C -1117.7408 -1600.7613 -1119.1743 -1599.6345 -1120.6875 -1598.5312 C -1120.971 -1598.3246 -1121.2739 -1598.1108 -1121.5625 -1597.9062 L -1121.5625 -1593.8125 C -1121.5625 -1586.8163 -1120.5349 -1581.785 -1118.4688 -1578.6562 C -1116.3833 -1575.5504 -1113.065 -1574 -1108.5 -1574 C -1103.8175 -1574 -1100.285 -1575.655 -1097.9062 -1579 C -1095.524 -1582.34 -1094.3125 -1587.285 -1094.3125 -1593.8125 L -1094.3125 -1641.5 L -1073.4688 -1641.4688 C -1074.2008 -1683.409 -1104.1611 -1718.3137 -1143.8438 -1726.5625 C -1143.5784 -1730.8628 -1145.8263 -1737.4262 -1145.9062 -1741.6875 C -1146.1397 -1744.7529 -1144.0421 -1751.5095 -1146.1562 -1754.375 C -1146.9683 -1754.6587 -1148.7415 -1754.7316 -1150.75 -1754.7188 z M -1200.3125 -1691.5625 C -1198.4989 -1690.4473 -1183.2463 -1679.1844 -1182.0625 -1677.5 C -1179.8817 -1674.8939 -1172.7607 -1664.1388 -1177.9062 -1660.8438 C -1189.132 -1660.8013 -1199.9043 -1665.7201 -1210.3438 -1668.7812 C -1214.1688 -1667.4343 -1201.505 -1690.1511 -1200.3125 -1691.5625 z M -1122.5 -1691.5625 C -1121.2734 -1690.1844 -1108.2216 -1667.9972 -1112.1562 -1669.3125 C -1122.8949 -1666.3235 -1134.0156 -1661.5215 -1145.5625 -1661.5625 C -1150.8554 -1664.78 -1134.3058 -1680.2368 -1132.0625 -1682.7812 C -1130.8448 -1684.4262 -1124.3655 -1690.4735 -1122.5 -1691.5625 z M -1160.5312 -1648.5312 C -1154.6526 -1642.3787 -1147.9211 -1632.6906 -1147.0625 -1624.0938 C -1156.0159 -1626.3196 -1161.6878 -1627.3335 -1173.5312 -1623.4688 C -1172.6035 -1633.6749 -1166.8047 -1641.2923 -1160.5312 -1648.5312 z "
             transform="matrix(0.8,0,0,-0.8,0,190.816)"
             id="path3203-6" />
        </g>
      </g>
    </g>
  </g>
</svg>
